<?xml version="1.0" encoding="UTF-8"?>
<svg width="400" height="300" viewBox="0 0 400 300" fill="none" xmlns="http://www.w3.org/2000/svg">
    <rect width="400" height="300" fill="#6366f1"/>
    <path d="M200 120C186.745 120 176 130.745 176 144C176 157.255 186.745 168 200 168C213.255 168 224 157.255 224 144C224 130.745 213.255 120 200 120ZM200 162C190.075 162 182 153.925 182 144C182 134.075 190.075 126 200 126C209.925 126 218 134.075 218 144C218 153.925 209.925 162 200 162Z" fill="white"/>
    <path d="M200 132C193.383 132 188 137.383 188 144C188 150.617 193.383 156 200 156C206.617 156 212 150.617 212 144C212 137.383 206.617 132 200 132ZM200 150C196.691 150 194 147.309 194 144C194 140.691 196.691 138 200 138C203.309 138 206 140.691 206 144C206 147.309 203.309 150 200 150Z" fill="white"/>
    <path d="M180 180H220V186H180V180Z" fill="white"/>
    <path d="M160 192H240V198H160V192Z" fill="white"/>
    <path d="M170 204H230V210H170V204Z" fill="white"/>
</svg>
