<?xml version="1.0" encoding="UTF-8"?>
<svg width="40" height="40" viewBox="0 0 40 40" fill="none" xmlns="http://www.w3.org/2000/svg">
    <path d="M20 0C8.954 0 0 8.954 0 20s8.954 20 20 20 20-8.954 20-20S31.046 0 20 0zm0 4c8.837 0 16 7.163 16 16s-7.163 16-16 16S4 28.837 4 20 11.163 4 20 4z" fill="url(#paint0_linear)"/>
    <path d="M12 14l8 4 8-4v12l-8 4-8-4V14z" fill="url(#paint1_linear)"/>
    <defs>
        <linearGradient id="paint0_linear" x1="0" y1="0" x2="40" y2="40" gradientUnits="userSpaceOnUse">
            <stop stop-color="#9333EA"/>
            <stop offset="1" stop-color="#3B82F6"/>
        </linearGradient>
        <linearGradient id="paint1_linear" x1="12" y1="14" x2="28" y2="30" gradientUnits="userSpaceOnUse">
            <stop stop-color="#9333EA"/>
            <stop offset="1" stop-color="#3B82F6"/>
        </linearGradient>
    </defs>
</svg>
