<svg xmlns="http://www.w3.org/2000/svg" style="display: none;">
    <!-- Web Development Icon -->
    <symbol id="web" viewBox="0 0 24 24" fill="none" stroke="currentColor" stroke-width="2" stroke-linecap="round" stroke-linejoin="round">
        <rect x="2" y="3" width="20" height="14" rx="2" ry="2"></rect>
        <line x1="8" y1="21" x2="16" y2="21"></line>
        <line x1="12" y1="17" x2="12" y2="21"></line>
        <path d="M2 8h20"></path>
        <circle cx="6" cy="6" r="1"></circle>
    </symbol>

    <!-- Backend Architecture Icon -->
    <symbol id="backend" viewBox="0 0 24 24" fill="none" stroke="currentColor" stroke-width="2" stroke-linecap="round" stroke-linejoin="round">
        <rect x="2" y="2" width="20" height="8" rx="2" ry="2"></rect>
        <rect x="2" y="14" width="20" height="8" rx="2" ry="2"></rect>
        <line x1="6" y1="6" x2="6.01" y2="6"></line>
        <line x1="6" y1="18" x2="6.01" y2="18"></line>
        <path d="M12 6h8"></path>
        <path d="M12 18h8"></path>
    </symbol>

    <!-- API Development Icon -->
    <symbol id="api" viewBox="0 0 24 24" fill="none" stroke="currentColor" stroke-width="2" stroke-linecap="round" stroke-linejoin="round">
        <path d="M4 17V7c0-2 2-2 2-2h12c2 0 2 2 2 2v10c0 2-2 2-2 2H6s-2 0-2-2z"></path>
        <polyline points="7 8 10 11 13 8"></polyline>
        <line x1="10" y1="11" x2="10" y2="16"></line>
        <line x1="14" y1="11" x2="17" y2="11"></line>
        <line x1="14" y1="14" x2="17" y2="14"></line>
    </symbol>

    <!-- Database Design Icon -->
    <symbol id="database" viewBox="0 0 24 24" fill="none" stroke="currentColor" stroke-width="2" stroke-linecap="round" stroke-linejoin="round">
        <ellipse cx="12" cy="5" rx="9" ry="3"></ellipse>
        <path d="M21 12c0 1.66-4 3-9 3s-9-1.34-9-3"></path>
        <path d="M3 5v14c0 1.66 4 3 9 3s9-1.34 9-3V5"></path>
    </symbol>
</svg>
