<?xml version="1.0" encoding="UTF-8"?>
<svg width="400" height="100" viewBox="0 0 400 100" fill="none" xmlns="http://www.w3.org/2000/svg">
    <!-- Frontend -->
    <g transform="translate(0,0)">
        <circle cx="50" cy="50" r="45" fill="currentColor" fill-opacity="0.1" stroke="currentColor" stroke-width="2"/>
        <path d="M35 40l15 20-15 20M65 40l-15 20 15 20M55 35l-10 50" stroke="currentColor" stroke-width="2" stroke-linecap="round" stroke-linejoin="round"/>
    </g>

    <!-- Backend -->
    <g transform="translate(100,0)">
        <circle cx="50" cy="50" r="45" fill="currentColor" fill-opacity="0.1" stroke="currentColor" stroke-width="2"/>
        <path d="M30 35h40v30H30zM40 45v10M50 45v10M60 45v10" stroke="currentColor" stroke-width="2" stroke-linecap="round" stroke-linejoin="round"/>
    </g>

    <!-- Database -->
    <g transform="translate(200,0)">
        <circle cx="50" cy="50" r="45" fill="currentColor" fill-opacity="0.1" stroke="currentColor" stroke-width="2"/>
        <path d="M35 35h30M35 45h30M35 55h30M35 65h30" stroke="currentColor" stroke-width="2" stroke-linecap="round"/>
        <path d="M40 35v30M50 35v30M60 35v30" stroke="currentColor" stroke-width="2" stroke-linecap="round"/>
    </g>

    <!-- DevOps -->
    <g transform="translate(300,0)">
        <circle cx="50" cy="50" r="45" fill="currentColor" fill-opacity="0.1" stroke="currentColor" stroke-width="2"/>
        <path d="M35 50c0-8.284 6.716-15 15-15s15 6.716 15 15-6.716 15-15 15" stroke="currentColor" stroke-width="2" stroke-linecap="round"/>
        <path d="M50 35v30M35 50h30" stroke="currentColor" stroke-width="2" stroke-linecap="round"/>
    </g>
</svg>
