<?xml version="1.0" encoding="UTF-8"?>
<svg width="200" height="50" viewBox="0 0 200 50" fill="none" xmlns="http://www.w3.org/2000/svg">
    <!-- GitHub -->
    <g transform="translate(0,0)">
        <circle cx="25" cy="25" r="23" fill="currentColor" fill-opacity="0.1" stroke="currentColor" stroke-width="2"/>
        <path d="M25 12C17.8203 12 12 17.8203 12 25C12 32.1797 17.8203 38 25 38C32.1797 38 38 32.1797 38 25C38 17.8203 32.1797 12 25 12ZM29.7344 33.7109C29.1406 33.8281 28.9062 33.4766 28.9062 33.1875C28.9062 32.8125 28.9219 31.1562 28.9219 29.8125C28.9219 28.8594 28.5938 28.2656 28.2188 27.9688C30.5938 27.7031 33.0938 27.3672 33.0938 23.4844C33.0938 22.2969 32.6406 21.7031 31.8594 20.8906C31.9844 20.6016 32.3828 19.5156 31.7344 18.1406C30.8125 17.8516 28.9375 19.1406 28.9375 19.1406C28.0781 18.8984 27.1484 18.7734 26.2344 18.7734C25.3203 18.7734 24.3906 18.8984 23.5312 19.1406C23.5312 19.1406 21.6562 17.8516 20.7344 18.1406C20.0859 19.5156 20.4844 20.6016 20.6094 20.8906C19.8281 21.7031 19.4844 22.2969 19.4844 23.4844C19.4844 27.3516 21.8906 27.7031 24.2656 27.9688C23.9688 28.2188 23.7031 28.6484 23.6094 29.2734C23.0469 29.5234 21.5781 29.9531 20.6875 28.3281C20.1094 27.3125 19.0312 27.2188 19.0312 27.2188C17.9688 27.2031 18.9531 27.8906 18.9531 27.8906C19.6406 28.2188 20.125 29.4531 20.125 29.4531C20.7344 31.3281 23.5781 30.7188 23.5781 30.7188C23.5781 31.5781 23.5938 32.8906 23.5938 33.1875C23.5938 33.4766 23.3594 33.8281 22.7656 33.7109C18.4219 32.2266 15.3125 28.1094 15.3125 23.3125C15.3125 17.3125 19.9844 12.6406 25.9844 12.6406C31.9844 12.6406 36.8125 17.3125 36.8125 23.3125C36.8125 28.1094 33.7031 32.2266 29.7344 33.7109Z" fill="currentColor"/>
    </g>

    <!-- LinkedIn -->
    <g transform="translate(50,0)">
        <circle cx="25" cy="25" r="23" fill="currentColor" fill-opacity="0.1" stroke="currentColor" stroke-width="2"/>
        <path d="M32 15H18C16.3431 15 15 16.3431 15 18V32C15 33.6569 16.3431 35 18 35H32C33.6569 35 35 33.6569 35 32V18C35 16.3431 33.6569 15 32 15ZM21 31H18V22H21V31ZM19.5 20.5C18.3954 20.5 17.5 19.6046 17.5 18.5C17.5 17.3954 18.3954 16.5 19.5 16.5C20.6046 16.5 21.5 17.3954 21.5 18.5C21.5 19.6046 20.6046 20.5 19.5 20.5ZM32 31H29V26.5C29 23.5 25 23.75 25 26.5V31H22V22H25V23.75C26.3384 21.0172 32 20.8743 32 25.25V31Z" fill="currentColor"/>
    </g>

    <!-- Twitter -->
    <g transform="translate(100,0)">
        <circle cx="25" cy="25" r="23" fill="currentColor" fill-opacity="0.1" stroke="currentColor" stroke-width="2"/>
        <path d="M36 18C35.1 18.4 34.2 18.6 33.2 18.7C34.2 18.1 35 17.1 35.4 15.9C34.5 16.5 33.5 16.9 32.4 17.1C31.5 16.1 30.3 15.5 29 15.5C26.5 15.5 24.4 17.6 24.4 20.1C24.4 20.5 24.5 20.9 24.6 21.2C20.9 21 17.5 19.1 15.2 16.3C14.8 17 14.6 17.9 14.6 18.7C14.6 20.4 15.5 21.8 16.8 22.7C16 22.7 15.3 22.5 14.6 22.1V22.2C14.6 24.4 16.2 26.2 18.3 26.6C17.9 26.7 17.5 26.8 17 26.8C16.7 26.8 16.4 26.7 16.1 26.7C16.7 28.5 18.4 29.7 20.3 29.7C18.7 30.9 16.7 31.6 14.6 31.6C14.2 31.6 13.8 31.6 13.4 31.5C15.3 32.8 17.6 33.5 20 33.5C29 33.5 33.9 26.2 33.9 19.8C33.9 19.6 33.9 19.4 33.9 19.2C34.8 18.5 35.6 17.6 36.2 16.6L36 18Z" fill="currentColor"/>
    </g>

    <!-- Email -->
    <g transform="translate(150,0)">
        <circle cx="25" cy="25" r="23" fill="currentColor" fill-opacity="0.1" stroke="currentColor" stroke-width="2"/>
        <path d="M15 18V32H35V18H15ZM32.2 18L25 24.6L17.8 18H32.2ZM17 30V19.8L25 27L33 19.8V30H17Z" fill="currentColor"/>
    </g>
</svg>
