<?xml version="1.0" encoding="UTF-8"?>
<svg width="400" height="100" viewBox="0 0 400 100" fill="none" xmlns="http://www.w3.org/2000/svg">
    <!-- React -->
    <g transform="translate(0,0)">
        <circle cx="50" cy="50" r="45" fill="#61DAFB" fill-opacity="0.1" stroke="#61DAFB" stroke-width="2"/>
        <path d="M50 38.5C44.4772 38.5 40 42.9772 40 48.5C40 54.0228 44.4772 58.5 50 58.5C55.5228 58.5 60 54.0228 60 48.5C60 42.9772 55.5228 38.5 50 38.5ZM50 56.5C45.5817 56.5 42 52.9183 42 48.5C42 44.0817 45.5817 40.5 50 40.5C54.4183 40.5 58 44.0817 58 48.5C58 52.9183 54.4183 56.5 50 56.5Z" fill="#61DAFB"/>
        <ellipse cx="50" cy="48.5" rx="20" ry="7.5" stroke="#61DAFB" stroke-width="2" transform="rotate(60 50 48.5)"/>
        <ellipse cx="50" cy="48.5" rx="20" ry="7.5" stroke="#61DAFB" stroke-width="2" transform="rotate(-60 50 48.5)"/>
    </g>

    <!-- Laravel -->
    <g transform="translate(100,0)">
        <circle cx="50" cy="50" r="45" fill="#FF2D20" fill-opacity="0.1" stroke="#FF2D20" stroke-width="2"/>
        <path d="M65 35L50 42.5L35 35L50 27.5L65 35ZM65 45L50 52.5L35 45V35L50 42.5L65 35V45ZM50 52.5V72.5L35 65V45L50 52.5ZM65 45V65L50 72.5V52.5L65 45Z" fill="#FF2D20"/>
    </g>

    <!-- TypeScript -->
    <g transform="translate(200,0)">
        <circle cx="50" cy="50" r="45" fill="#3178C6" fill-opacity="0.1" stroke="#3178C6" stroke-width="2"/>
        <path d="M35 65V35H65V65H35ZM60 40H40V60H45V45H50V60H55V45H60V40Z" fill="#3178C6"/>
    </g>

    <!-- Tailwind -->
    <g transform="translate(300,0)">
        <circle cx="50" cy="50" r="45" fill="#38BDF8" fill-opacity="0.1" stroke="#38BDF8" stroke-width="2"/>
        <path d="M31.25 50C32.9167 41.6667 37.9167 37.5 46.25 37.5C58.75 37.5 60.4167 47.5 68.75 47.5C73.75 47.5 77.0833 45 78.75 40C77.0833 48.3333 72.0833 52.5 63.75 52.5C51.25 52.5 49.5833 42.5 41.25 42.5C36.25 42.5 32.9167 45 31.25 50Z" fill="#38BDF8"/>
    </g>
</svg>
